<svg width="30" height="30" viewBox="0 0 30 30" fill="none" xmlns="http://www.w3.org/2000/svg">
<path d="M21.25 11.4625C21.0158 11.2297 20.699 11.099 20.3687 11.099C20.0385 11.099 19.7217 11.2297 19.4875 11.4625L15 15.8875L10.575 11.4625C10.3408 11.2297 10.024 11.099 9.69375 11.099C9.36351 11.099 9.0467 11.2297 8.8125 11.4625C8.69534 11.5787 8.60234 11.7169 8.53888 11.8693C8.47542 12.0216 8.44275 12.185 8.44275 12.35C8.44275 12.515 8.47542 12.6784 8.53888 12.8307C8.60234 12.983 8.69534 13.1213 8.8125 13.2375L14.1125 18.5375C14.2287 18.6546 14.367 18.7476 14.5193 18.8111C14.6716 18.8746 14.835 18.9072 15 18.9072C15.165 18.9072 15.3284 18.8746 15.4807 18.8111C15.633 18.7476 15.7713 18.6546 15.8875 18.5375L21.25 13.2375C21.3672 13.1213 21.4601 12.983 21.5236 12.8307C21.5871 12.6784 21.6197 12.515 21.6197 12.35C21.6197 12.185 21.5871 12.0216 21.5236 11.8693C21.4601 11.7169 21.3672 11.5787 21.25 11.4625Z" fill="#222222"/>
</svg>
