<svg width="40" height="23" viewBox="0 0 40 23" fill="none" xmlns="http://www.w3.org/2000/svg">
<path d="M31.25 12.7778H8.75C8.05 12.7778 7.5 12.2156 7.5 11.5C7.5 10.7845 8.05 10.2222 8.75 10.2222H31.25C31.95 10.2222 32.5 10.7845 32.5 11.5C32.5 12.2156 31.95 12.7778 31.25 12.7778Z" fill="white"/>
<path d="M15 21.7222C14.8361 21.7243 14.6735 21.6912 14.5228 21.6252C14.3721 21.5592 14.2366 21.4616 14.125 21.3389L5.375 12.3944C4.875 11.8833 4.875 11.0911 5.375 10.58L14.125 1.6611C14.625 1.14999 15.4 1.14999 15.9 1.6611C16.4 2.17222 16.4 2.96444 15.9 3.47555L8.025 11.5255L15.9 19.5755C16.4 20.0867 16.4 20.8789 15.9 21.39C15.65 21.6455 15.325 21.7733 15.025 21.7733L15 21.7222Z" fill="white"/>
</svg>
