<svg width="42" height="42" viewBox="0 0 42 42" fill="none" xmlns="http://www.w3.org/2000/svg">
<path d="M35.8231 29.2031C34.8764 27.5625 33.4688 22.9901 33.4688 17.0625C33.4688 13.7556 32.1551 10.5841 29.8167 8.24576C27.4784 5.90742 24.3069 4.59375 21 4.59375C17.6931 4.59375 14.5216 5.90742 12.1833 8.24576C9.84493 10.5841 8.53126 13.7556 8.53126 17.0625C8.53126 22.9901 7.12196 27.5625 6.17532 29.1949C6.00071 29.494 5.90809 29.8339 5.90681 30.1803C5.90554 30.5266 5.99565 30.8671 6.16806 31.1675C6.34047 31.4679 6.58907 31.7175 6.88877 31.8911C7.18847 32.0647 7.52867 32.1562 7.87501 32.1562H15.1315C15.2953 33.598 15.984 34.929 17.0664 35.8954C18.1488 36.8618 19.549 37.3959 21 37.3959C22.451 37.3959 23.8513 36.8618 24.9336 35.8954C26.016 34.929 26.7048 33.598 26.8685 32.1562H34.125C34.47 32.155 34.8086 32.0632 35.107 31.8899C35.4053 31.7166 35.6528 31.468 35.8248 31.1689C35.9968 30.8698 36.0871 30.5308 36.0868 30.1858C36.0865 29.8408 35.9956 29.5019 35.8231 29.2031ZM21 36.0938C19.8955 36.0936 18.8279 35.6955 17.993 34.9724C17.1581 34.2493 16.6116 33.2495 16.4538 32.1562H25.5462C25.3884 33.2495 24.842 34.2493 24.007 34.9724C23.1721 35.6955 22.1046 36.0936 21 36.0938ZM34.691 30.5156C34.6349 30.6158 34.553 30.6991 34.4537 30.7568C34.3544 30.8146 34.2415 30.8446 34.1267 30.8438H7.87501C7.76018 30.8446 7.64724 30.8146 7.54796 30.7568C7.44869 30.6991 7.36673 30.6158 7.31064 30.5156C7.25304 30.4159 7.22272 30.3027 7.22272 30.1875C7.22272 30.0723 7.25304 29.9591 7.31064 29.8594C8.53126 27.7545 9.84376 22.8572 9.84376 17.0625C9.84376 14.1037 11.0191 11.266 13.1114 9.17384C15.2036 7.08164 18.0412 5.90625 21 5.90625C23.9588 5.90625 26.7965 7.08164 28.8887 9.17384C30.9809 11.266 32.1563 14.1037 32.1563 17.0625C32.1563 22.8555 33.4688 27.7545 34.6894 29.8594C34.7472 29.959 34.7778 30.0721 34.7781 30.1873C34.7784 30.3025 34.7484 30.4157 34.691 30.5156Z" fill="white"/>
</svg>
