<svg width="15" height="15" viewBox="0 0 15 15" fill="none" xmlns="http://www.w3.org/2000/svg">
<path d="M12.1875 2.10938H10.5469V1.40625C10.5469 1.34409 10.5222 1.28448 10.4782 1.24052C10.4343 1.19657 10.3747 1.17188 10.3125 1.17188C10.2503 1.17188 10.1907 1.19657 10.1468 1.24052C10.1028 1.28448 10.0781 1.34409 10.0781 1.40625V2.10938H4.92188V1.40625C4.92188 1.34409 4.89718 1.28448 4.85323 1.24052C4.80927 1.19657 4.74966 1.17188 4.6875 1.17188C4.62534 1.17188 4.56573 1.19657 4.52177 1.24052C4.47782 1.28448 4.45312 1.34409 4.45312 1.40625V2.10938H2.8125C2.62602 2.10938 2.44718 2.18345 2.31532 2.31532C2.18345 2.44718 2.10938 2.62602 2.10938 2.8125V12.1875C2.10938 12.374 2.18345 12.5528 2.31532 12.6847C2.44718 12.8165 2.62602 12.8906 2.8125 12.8906H12.1875C12.374 12.8906 12.5528 12.8165 12.6847 12.6847C12.8165 12.5528 12.8906 12.374 12.8906 12.1875V2.8125C12.8906 2.62602 12.8165 2.44718 12.6847 2.31532C12.5528 2.18345 12.374 2.10938 12.1875 2.10938ZM2.8125 2.57812H4.45312V3.28125C4.45312 3.34341 4.47782 3.40302 4.52177 3.44698C4.56573 3.49093 4.62534 3.51562 4.6875 3.51562C4.74966 3.51562 4.80927 3.49093 4.85323 3.44698C4.89718 3.40302 4.92188 3.34341 4.92188 3.28125V2.57812H10.0781V3.28125C10.0781 3.34341 10.1028 3.40302 10.1468 3.44698C10.1907 3.49093 10.2503 3.51562 10.3125 3.51562C10.3747 3.51562 10.4343 3.49093 10.4782 3.44698C10.5222 3.40302 10.5469 3.34341 10.5469 3.28125V2.57812H12.1875C12.2497 2.57812 12.3093 2.60282 12.3532 2.64677C12.3972 2.69073 12.4219 2.75034 12.4219 2.8125V4.92188H2.57812V2.8125C2.57812 2.75034 2.60282 2.69073 2.64677 2.64677C2.69073 2.60282 2.75034 2.57812 2.8125 2.57812ZM12.1875 12.4219H2.8125C2.75034 12.4219 2.69073 12.3972 2.64677 12.3532C2.60282 12.3093 2.57812 12.2497 2.57812 12.1875V5.39062H12.4219V12.1875C12.4219 12.2497 12.3972 12.3093 12.3532 12.3532C12.3093 12.3972 12.2497 12.4219 12.1875 12.4219ZM6.32812 7.03125V10.7812C6.32812 10.8434 6.30343 10.903 6.25948 10.947C6.21552 10.9909 6.15591 11.0156 6.09375 11.0156C6.03159 11.0156 5.97198 10.9909 5.92802 10.947C5.88407 10.903 5.85938 10.8434 5.85938 10.7812V7.41035L5.26113 7.70977C5.2055 7.73758 5.14109 7.74216 5.08209 7.72249C5.02308 7.70282 4.9743 7.66052 4.94648 7.60488C4.91867 7.54925 4.91409 7.48484 4.93376 7.42584C4.95343 7.36683 4.99573 7.31805 5.05137 7.29023L5.98887 6.82148C6.02461 6.8036 6.06434 6.79515 6.10427 6.79694C6.1442 6.79874 6.18301 6.81071 6.21701 6.83174C6.25101 6.85276 6.27906 6.88212 6.29851 6.91704C6.31796 6.95196 6.32815 6.99128 6.32812 7.03125ZM9.84375 8.67188L8.4375 10.5469H9.84375C9.90591 10.5469 9.96552 10.5716 10.0095 10.6155C10.0534 10.6595 10.0781 10.7191 10.0781 10.7812C10.0781 10.8434 10.0534 10.903 10.0095 10.947C9.96552 10.9909 9.90591 11.0156 9.84375 11.0156H7.96875C7.92522 11.0156 7.88256 11.0035 7.84553 10.9806C7.80851 10.9577 7.77858 10.925 7.75912 10.8861C7.73965 10.8471 7.73141 10.8036 7.73532 10.7602C7.73923 10.7169 7.75513 10.6754 7.78125 10.6406L9.46758 8.39238C9.5601 8.27059 9.60994 8.1217 9.60938 7.96875C9.60955 7.81382 9.55855 7.66318 9.4643 7.54022C9.37005 7.41726 9.23782 7.32887 9.08817 7.28878C8.93852 7.2487 8.77982 7.25916 8.63673 7.31855C8.49364 7.37793 8.37417 7.48292 8.29688 7.61719C8.26445 7.6682 8.21356 7.70471 8.15484 7.7191C8.09613 7.73348 8.03413 7.72462 7.98179 7.69437C7.92945 7.66411 7.89083 7.61481 7.87399 7.55675C7.85715 7.4987 7.86339 7.43638 7.89141 7.38281C8.0204 7.15942 8.2195 6.98483 8.45782 6.88612C8.69615 6.78741 8.96039 6.77009 9.20956 6.83686C9.45873 6.90362 9.67891 7.05074 9.83595 7.25539C9.99299 7.46004 10.0781 7.71079 10.0781 7.96875C10.079 8.22245 9.99665 8.46943 9.84375 8.67188Z" fill="black"/>
</svg>
