<svg width="15" height="15" viewBox="0 0 15 15" fill="none" xmlns="http://www.w3.org/2000/svg">
<path d="M9.44687 5.58123V6.84373M3.40624 1.72498C3.1576 1.72498 2.91915 1.82375 2.74333 1.99956C2.56752 2.17538 2.46874 2.41384 2.46874 2.66248V12.0687H2.32499C2.16669 12.0687 2.01488 12.1316 1.90294 12.2435C1.791 12.3555 1.72812 12.5073 1.72812 12.6656C1.72812 12.8239 1.791 12.9757 1.90294 13.0877C2.01488 13.1996 2.16669 13.2625 2.32499 13.2625H9.57499C9.73329 13.2625 9.88511 13.1996 9.99705 13.0877C10.109 12.9757 10.1719 12.8239 10.1719 12.6656C10.1719 12.5073 10.109 12.3555 9.99705 12.2435C9.88511 12.1316 9.73329 12.0687 9.57499 12.0687H9.44687V6.75623H9.75937C9.85243 6.75325 9.94361 6.78284 10.0172 6.83988C10.0908 6.89693 10.1422 6.97786 10.1625 7.06873V10.5406C10.1641 10.9445 10.3253 11.3315 10.611 11.6171C10.8966 11.9028 11.2835 12.064 11.6875 12.0656H11.7531C12.1568 12.0631 12.5433 11.9017 12.8287 11.6162C13.1142 11.3308 13.2757 10.9443 13.2781 10.5406V4.94998V3.77185C13.2773 3.61219 13.2133 3.45936 13.1 3.34685L11.65 1.90623C11.5373 1.79475 11.3849 1.73262 11.2264 1.7335C11.0678 1.73438 10.9162 1.7982 10.8047 1.91091C10.6932 2.02363 10.6311 2.17601 10.632 2.33454C10.6328 2.49307 10.6967 2.64475 10.8094 2.75623L11.6281 3.56873L11.0031 4.19373C10.93 4.26836 10.8804 4.36292 10.8608 4.46556C10.8411 4.5682 10.8521 4.67437 10.8925 4.77077C10.9328 4.86717 11.0007 4.94953 11.0877 5.00753C11.1746 5.06553 11.2767 5.0966 11.3812 5.09685H12.0687V6.87498V10.5406C12.0687 10.6235 12.0358 10.703 11.9772 10.7616C11.9186 10.8202 11.8391 10.8531 11.7562 10.8531H11.6906C11.6077 10.8531 11.5283 10.8202 11.4696 10.7616C11.411 10.703 11.3781 10.6235 11.3781 10.5406V7.43748V7.18748C11.3757 6.76637 11.2073 6.36322 10.9095 6.06545C10.6117 5.76768 10.2086 5.59931 9.78749 5.59685H9.47499V2.67498C9.47499 2.42634 9.37622 2.18788 9.20041 2.01206C9.02459 1.83625 8.78613 1.73748 8.53749 1.73748H3.40624V1.72498ZM4.18437 2.9281H7.71874C7.78959 2.92769 7.85982 2.94129 7.9254 2.96811C7.99097 2.99494 8.05059 3.03447 8.10084 3.08442C8.15108 3.13437 8.19095 3.19377 8.21816 3.25918C8.24536 3.3246 8.25937 3.39475 8.25937 3.4656V5.99998C8.25978 6.07109 8.24608 6.14157 8.21906 6.20735C8.19204 6.27313 8.15223 6.33289 8.10195 6.38318C8.05166 6.43346 7.9919 6.47327 7.92612 6.50029C7.86034 6.52731 7.78986 6.54102 7.71874 6.5406H4.18437C4.11326 6.54102 4.04277 6.52731 3.97699 6.50029C3.91121 6.47327 3.85145 6.43346 3.80116 6.38318C3.75088 6.33289 3.71107 6.27313 3.68405 6.20735C3.65703 6.14157 3.64333 6.07109 3.64374 5.99998V3.4656C3.64374 3.39475 3.65775 3.3246 3.68496 3.25918C3.71216 3.19377 3.75203 3.13437 3.80228 3.08442C3.85252 3.03447 3.91214 2.99494 3.97772 2.96811C4.04329 2.94129 4.11352 2.92769 4.18437 2.9281ZM6.91562 7.51873C6.9309 7.51998 6.94566 7.52484 6.95869 7.53291C6.97172 7.54098 6.98265 7.55203 6.99058 7.56515C6.99851 7.57827 7.00322 7.59308 7.00431 7.60837C7.0054 7.62366 7.00285 7.63899 6.99687 7.6531L6.43437 8.8156L7.00937 8.63748C7.02657 8.63231 7.0449 8.6322 7.06216 8.63715C7.07943 8.64211 7.09491 8.65192 7.10676 8.66541C7.11861 8.67891 7.12634 8.69553 7.12901 8.71329C7.13169 8.73105 7.12921 8.74921 7.12187 8.7656L6.56249 9.95623L7.03437 9.85935C7.05394 9.85518 7.07434 9.85739 7.09257 9.86565C7.11079 9.87391 7.1259 9.88778 7.13568 9.90524C7.14546 9.9227 7.14939 9.94283 7.14691 9.96269C7.14442 9.98255 7.13565 10.0011 7.12187 10.0156L5.53437 11.7625C5.52015 11.7778 5.50124 11.7879 5.48063 11.7912C5.46002 11.7945 5.43889 11.7909 5.42059 11.7808C5.40229 11.7708 5.38787 11.7549 5.37961 11.7357C5.37135 11.7166 5.36972 11.6952 5.37499 11.675L5.61874 10.7375L5.12812 10.925C5.11108 10.9318 5.09242 10.9335 5.07444 10.9298C5.05646 10.9261 5.03996 10.9172 5.02699 10.9042C5.01401 10.8913 5.00513 10.8748 5.00144 10.8568C4.99776 10.8388 4.99942 10.8201 5.00624 10.8031L5.45937 9.6406L4.83437 9.88748C4.817 9.8948 4.79783 9.89673 4.77935 9.893C4.76087 9.88926 4.74395 9.88005 4.73079 9.86655C4.71763 9.85305 4.70885 9.8359 4.70558 9.81734C4.70232 9.79877 4.70473 9.77965 4.71249 9.76248L5.43437 8.08435C5.44539 8.06177 5.46428 8.04399 5.48749 8.03435L6.87499 7.52498H6.90937L6.91562 7.51873Z" stroke="black" stroke-width="0.3125" stroke-linecap="round" stroke-linejoin="round"/>
</svg>
