<svg width="68" height="14" viewBox="0 0 68 14" fill="none" xmlns="http://www.w3.org/2000/svg">
<path d="M7.5 10.0742L10.0937 11.5384C10.5687 11.8067 11.15 11.41 11.025 10.9084L10.3375 8.15503L12.6312 6.30003C13.05 5.96169 12.825 5.32003 12.275 5.27919L9.25625 5.04003L8.075 2.43836C7.8625 1.96586 7.1375 1.96586 6.925 2.43836L5.74375 5.03419L2.725 5.27336C2.175 5.31419 1.95 5.95586 2.36875 6.29419L4.6625 8.14919L3.975 10.9025C3.85 11.4042 4.43125 11.8009 4.90625 11.5325L7.5 10.0742Z" fill="#FFA51F"/>
<path d="M20.5 10.0742L23.0937 11.5384C23.5687 11.8067 24.15 11.41 24.025 10.9084L23.3375 8.15503L25.6312 6.30003C26.05 5.96169 25.825 5.32003 25.275 5.27919L22.2562 5.04003L21.075 2.43836C20.8625 1.96586 20.1375 1.96586 19.925 2.43836L18.7437 5.03419L15.725 5.27336C15.175 5.31419 14.95 5.95586 15.3687 6.29419L17.6625 8.14919L16.975 10.9025C16.85 11.4042 17.4312 11.8009 17.9062 11.5325L20.5 10.0742Z" fill="#FFA51F"/>
<path d="M34 10.0742L36.7667 11.5384C37.2733 11.8067 37.8933 11.41 37.76 10.9084L37.0267 8.15503L39.4733 6.30003C39.92 5.96169 39.68 5.32003 39.0933 5.27919L35.8733 5.04003L34.6133 2.43836C34.3867 1.96586 33.6133 1.96586 33.3867 2.43836L32.1267 5.03419L28.9067 5.27336C28.32 5.31419 28.08 5.95586 28.5267 6.29419L30.9733 8.14919L30.24 10.9025C30.1067 11.4042 30.7267 11.8009 31.2333 11.5325L34 10.0742Z" fill="#FFA51F"/>
<path d="M47 10.0742L49.7667 11.5384C50.2733 11.8067 50.8933 11.41 50.76 10.9084L50.0267 8.15503L52.4733 6.30003C52.92 5.96169 52.68 5.32003 52.0933 5.27919L48.8733 5.04003L47.6133 2.43836C47.3867 1.96586 46.6133 1.96586 46.3867 2.43836L45.1267 5.03419L41.9067 5.27336C41.32 5.31419 41.08 5.95586 41.5267 6.29419L43.9733 8.14919L43.24 10.9025C43.1067 11.4042 43.7267 11.8009 44.2333 11.5325L47 10.0742Z" fill="#FFA51F"/>
<path d="M60 10.0742L62.7667 11.5384C63.2733 11.8067 63.8933 11.41 63.76 10.9084L63.0267 8.15503L65.4733 6.30003C65.92 5.96169 65.68 5.32003 65.0933 5.27919L61.8733 5.04003L60.6133 2.43836C60.3867 1.96586 59.6133 1.96586 59.3867 2.43836L58.1267 5.03419L54.9067 5.27336C54.32 5.31419 54.08 5.95586 54.5267 6.29419L56.9733 8.14919L56.24 10.9025C56.1067 11.4042 56.7267 11.8009 57.2333 11.5325L60 10.0742Z" fill="#FFA51F"/>
</svg>
