<svg width="42" height="42" viewBox="0 0 42 42" fill="none" xmlns="http://www.w3.org/2000/svg">
<path d="M34.3315 37.1875C34.3315 30.884 27.3035 25.76 21 25.76C14.6965 25.76 7.66852 30.884 7.66852 37.1875M21 20.048C23.0204 20.048 24.958 19.2454 26.3866 17.8168C27.8152 16.3882 28.6178 14.4506 28.6178 12.4303C28.6178 10.4099 27.8152 8.47229 26.3866 7.04369C24.958 5.61508 23.0204 4.8125 21 4.8125C18.9797 4.8125 17.0421 5.61508 15.6135 7.04369C14.1849 8.47229 13.3823 10.4099 13.3823 12.4303C13.3823 14.4506 14.1849 16.3882 15.6135 17.8168C17.0421 19.2454 18.9797 20.048 21 20.048Z" stroke="white" stroke-width="0.9375" stroke-linecap="round" stroke-linejoin="round"/>
</svg>
